<svg width="29" height="43" viewBox="0 0 29 43" fill="none" xmlns="http://www.w3.org/2000/svg">
<path d="M27.0146 18.8575L6.38877 1.66921C5.6876 1.08921 4.78516 0.810714 3.87907 0.894693C2.97299 0.978673 2.13711 1.41829 1.55448 2.11727C0.971843 2.81625 0.689941 3.71763 0.770502 4.62403C0.851063 5.53042 1.28752 6.36795 1.9843 6.95322L19.4411 21.4996L1.9843 36.0459C1.28484 36.6304 0.845966 37.4686 0.764095 38.3764C0.682224 39.2842 0.96405 40.1874 1.54766 40.8876C2.13127 41.5877 2.96894 42.0276 3.87666 42.1106C4.78438 42.1935 5.68791 41.9128 6.38877 41.33L27.0146 24.1415C27.4014 23.8184 27.7125 23.4143 27.9259 22.9578C28.1394 22.5012 28.2501 22.0034 28.2501 21.4995C28.2501 20.9955 28.1394 20.4977 27.9259 20.0412C27.7125 19.5846 27.4014 19.1806 27.0146 18.8575Z" fill="#F2F2F2"/>
</svg>
