<svg width="100" height="100" viewBox="0 0 100 100" fill="none" xmlns="http://www.w3.org/2000/svg">
<g clip-path="url(#clip0_109_193)">
<path d="M98.4375 43.75V4.6875C98.4375 3.8587 98.1083 3.06384 97.5222 2.47779C96.9362 1.89174 96.1413 1.5625 95.3125 1.5625H4.6875C3.8587 1.5625 3.06384 1.89174 2.47779 2.47779C1.89174 3.06384 1.5625 3.8587 1.5625 4.6875V95.3125C1.5625 96.1413 1.89174 96.9362 2.47779 97.5222C3.06384 98.1083 3.8587 98.4375 4.6875 98.4375H28.125" stroke="#1E1E1E" stroke-width="2" stroke-linejoin="round"/>
<path d="M1.5625 14.0625H98.4375" stroke="#1E1E1E" stroke-width="2" stroke-linejoin="round"/>
<path d="M6.25 7.8125H9.375" stroke="#1E1E1E" stroke-width="2" stroke-linejoin="round"/>
<path d="M12.5 7.8125H15.625" stroke="#1E1E1E" stroke-width="2" stroke-linejoin="round"/>
<path d="M90.625 7.8125H93.75" stroke="#1E1E1E" stroke-width="2" stroke-linejoin="round"/>
<path d="M23.4375 83.0609C19.0394 80.3386 15.429 76.5144 12.9637 71.9673C10.4985 67.4201 9.26412 62.3078 9.38282 57.1367C9.50152 51.9656 10.9692 46.9153 13.6405 42.486C16.3118 38.0568 20.0939 34.4023 24.6123 31.8847C29.1306 29.367 34.2283 28.0735 39.4004 28.1324C44.5725 28.1913 49.6395 29.6005 54.0994 32.2203C58.5592 34.8402 62.2572 38.5798 64.827 43.0687C67.3967 47.5577 68.749 52.6401 68.75 57.8125" stroke="#1E1E1E" stroke-width="2" stroke-linejoin="round"/>
<path d="M29.6875 60.9375V66.7969C29.6875 67.7293 30.0579 68.6235 30.7172 69.2828C31.3765 69.9421 32.2707 70.3125 33.2031 70.3125H44.9219C45.8543 70.3125 46.7485 69.9421 47.4078 69.2828C48.0671 68.6235 48.4375 67.7293 48.4375 66.7969V61.3281C48.4375 60.3957 48.0671 59.5015 47.4078 58.8422C46.7485 58.1829 45.8543 57.8125 44.9219 57.8125H33.2031C32.2707 57.8125 31.3765 57.4421 30.7172 56.7828C30.0579 56.1235 29.6875 55.2293 29.6875 54.2969V48.8281C29.6875 47.8957 30.0579 47.0015 30.7172 46.3422C31.3765 45.6829 32.2707 45.3125 33.2031 45.3125H44.9219C45.8543 45.3125 46.7485 45.6829 47.4078 46.3422C48.0671 47.0015 48.4375 47.8957 48.4375 48.8281V54.6875" stroke="#1E1E1E" stroke-width="2" stroke-linejoin="round"/>
<path d="M39.0625 45.3125V39.0625" stroke="#1E1E1E" stroke-width="2" stroke-linejoin="round"/>
<path d="M39.0625 76.5625V70.3125" stroke="#1E1E1E" stroke-width="2" stroke-linejoin="round"/>
<path d="M14.0625 20.3125H7.8125V26.5625" stroke="#1E1E1E" stroke-width="2" stroke-linejoin="round"/>
<path d="M92.1875 26.5625V20.3125H85.9375" stroke="#1E1E1E" stroke-width="2" stroke-linejoin="round"/>
<path d="M53.125 92.1875H34.375C33.5121 92.1875 32.8125 92.8871 32.8125 93.75V96.875C32.8125 97.7379 33.5121 98.4375 34.375 98.4375H53.125C53.9879 98.4375 54.6875 97.7379 54.6875 96.875V93.75C54.6875 92.8871 53.9879 92.1875 53.125 92.1875Z" stroke="#1E1E1E" stroke-width="2" stroke-linejoin="round"/>
<path d="M75 92.1875H56.25C55.3871 92.1875 54.6875 92.8871 54.6875 93.75V96.875C54.6875 97.7379 55.3871 98.4375 56.25 98.4375H75C75.8629 98.4375 76.5625 97.7379 76.5625 96.875V93.75C76.5625 92.8871 75.8629 92.1875 75 92.1875Z" stroke="#1E1E1E" stroke-width="2" stroke-linejoin="round"/>
<path d="M75 85.9375H56.25C55.3871 85.9375 54.6875 86.6371 54.6875 87.5V90.625C54.6875 91.4879 55.3871 92.1875 56.25 92.1875H75C75.8629 92.1875 76.5625 91.4879 76.5625 90.625V87.5C76.5625 86.6371 75.8629 85.9375 75 85.9375Z" stroke="#1E1E1E" stroke-width="2" stroke-linejoin="round"/>
<path d="M75 79.6875H56.25C55.3871 79.6875 54.6875 80.3871 54.6875 81.25V84.375C54.6875 85.2379 55.3871 85.9375 56.25 85.9375H75C75.8629 85.9375 76.5625 85.2379 76.5625 84.375V81.25C76.5625 80.3871 75.8629 79.6875 75 79.6875Z" stroke="#1E1E1E" stroke-width="2" stroke-linejoin="round"/>
<path d="M96.875 85.9375H78.125C77.2621 85.9375 76.5625 86.6371 76.5625 87.5V90.625C76.5625 91.4879 77.2621 92.1875 78.125 92.1875H96.875C97.7379 92.1875 98.4375 91.4879 98.4375 90.625V87.5C98.4375 86.6371 97.7379 85.9375 96.875 85.9375Z" stroke="#1E1E1E" stroke-width="2" stroke-linejoin="round"/>
<path d="M96.875 79.6875H78.125C77.2621 79.6875 76.5625 80.3871 76.5625 81.25V84.375C76.5625 85.2379 77.2621 85.9375 78.125 85.9375H96.875C97.7379 85.9375 98.4375 85.2379 98.4375 84.375V81.25C98.4375 80.3871 97.7379 79.6875 96.875 79.6875Z" stroke="#1E1E1E" stroke-width="2" stroke-linejoin="round"/>
<path d="M96.875 73.4375H78.125C77.2621 73.4375 76.5625 74.1371 76.5625 75V78.125C76.5625 78.9879 77.2621 79.6875 78.125 79.6875H96.875C97.7379 79.6875 98.4375 78.9879 98.4375 78.125V75C98.4375 74.1371 97.7379 73.4375 96.875 73.4375Z" stroke="#1E1E1E" stroke-width="2" stroke-linejoin="round"/>
<path d="M96.875 67.1875H78.125C77.2621 67.1875 76.5625 67.8871 76.5625 68.75V71.875C76.5625 72.7379 77.2621 73.4375 78.125 73.4375H96.875C97.7379 73.4375 98.4375 72.7379 98.4375 71.875V68.75C98.4375 67.8871 97.7379 67.1875 96.875 67.1875Z" stroke="#1E1E1E" stroke-width="2" stroke-linejoin="round"/>
<path d="M96.875 60.9375H78.125C77.2621 60.9375 76.5625 61.6371 76.5625 62.5V65.625C76.5625 66.4879 77.2621 67.1875 78.125 67.1875H96.875C97.7379 67.1875 98.4375 66.4879 98.4375 65.625V62.5C98.4375 61.6371 97.7379 60.9375 96.875 60.9375Z" stroke="#1E1E1E" stroke-width="2" stroke-linejoin="round"/>
<path d="M96.875 54.6875H78.125C77.2621 54.6875 76.5625 55.3871 76.5625 56.25V59.375C76.5625 60.2379 77.2621 60.9375 78.125 60.9375H96.875C97.7379 60.9375 98.4375 60.2379 98.4375 59.375V56.25C98.4375 55.3871 97.7379 54.6875 96.875 54.6875Z" stroke="#1E1E1E" stroke-width="2" stroke-linejoin="round"/>
<path d="M96.875 48.4375H78.125C77.2621 48.4375 76.5625 49.1371 76.5625 50V53.125C76.5625 53.9879 77.2621 54.6875 78.125 54.6875H96.875C97.7379 54.6875 98.4375 53.9879 98.4375 53.125V50C98.4375 49.1371 97.7379 48.4375 96.875 48.4375Z" stroke="#1E1E1E" stroke-width="2" stroke-linejoin="round"/>
<path d="M75 67.1875H56.25C55.3871 67.1875 54.6875 67.8871 54.6875 68.75V71.875C54.6875 72.7379 55.3871 73.4375 56.25 73.4375H75C75.8629 73.4375 76.5625 72.7379 76.5625 71.875V68.75C76.5625 67.8871 75.8629 67.1875 75 67.1875Z" stroke="#1E1E1E" stroke-width="2" stroke-linejoin="round"/>
<path d="M75 73.4375H56.25C55.3871 73.4375 54.6875 74.1371 54.6875 75V78.125C54.6875 78.9879 55.3871 79.6875 56.25 79.6875H75C75.8629 79.6875 76.5625 78.9879 76.5625 78.125V75C76.5625 74.1371 75.8629 73.4375 75 73.4375Z" stroke="#1E1E1E" stroke-width="2" stroke-linejoin="round"/>
<path d="M53.125 85.9375H34.375C33.5121 85.9375 32.8125 86.6371 32.8125 87.5V90.625C32.8125 91.4879 33.5121 92.1875 34.375 92.1875H53.125C53.9879 92.1875 54.6875 91.4879 54.6875 90.625V87.5C54.6875 86.6371 53.9879 85.9375 53.125 85.9375Z" stroke="#1E1E1E" stroke-width="2" stroke-linejoin="round"/>
<path d="M96.875 92.1875H78.125C77.2621 92.1875 76.5625 92.8871 76.5625 93.75V96.875C76.5625 97.7379 77.2621 98.4375 78.125 98.4375H96.875C97.7379 98.4375 98.4375 97.7379 98.4375 96.875V93.75C98.4375 92.8871 97.7379 92.1875 96.875 92.1875Z" stroke="#1E1E1E" stroke-width="2" stroke-linejoin="round"/>
<path d="M57.8125 26.5625H79.6875" stroke="#1E1E1E" stroke-width="2" stroke-linejoin="round"/>
<path d="M65.625 32.8125H76.5625" stroke="#1E1E1E" stroke-width="2" stroke-linejoin="round"/>
<path d="M68.75 39.0625H82.8125" stroke="#1E1E1E" stroke-width="2" stroke-linejoin="round"/>
<path d="M79.6875 32.8125H82.8125" stroke="#1E1E1E" stroke-width="2" stroke-linejoin="round"/>
<path d="M85.9375 39.0625H89.0625" stroke="#1E1E1E" stroke-width="2" stroke-linejoin="round"/>
<path d="M82.8125 26.5625H85.9375" stroke="#1E1E1E" stroke-width="2" stroke-linejoin="round"/>
</g>
<defs>
<clipPath id="clip0_109_193">
<rect width="100" height="100" fill="white"/>
</clipPath>
</defs>
</svg>
