<svg width="33" height="26" viewBox="0 0 33 26" fill="none" xmlns="http://www.w3.org/2000/svg">
<path d="M10.2579 14.124L24.1907 24.0408C24.3517 24.1562 24.547 24.2356 24.7575 24.2714C24.9679 24.3072 25.1863 24.2981 25.391 24.2449C25.5958 24.1918 25.78 24.0966 25.9255 23.9684C26.071 23.8403 26.1728 23.6838 26.2209 23.5143L29.1346 13.2214L32.0482 2.92844C32.0971 2.75115 32.0855 2.56646 32.0147 2.39408C31.944 2.2217 31.8167 2.0681 31.6464 1.94968C31.4761 1.83125 31.2693 1.75246 31.048 1.7217C30.8267 1.69094 30.5993 1.70937 30.3899 1.77503L1.7804 10.8644C0.633536 11.228 0.788517 12.582 1.99737 12.7826L10.2579 14.124Z" stroke="#464C4A" stroke-width="1.5" stroke-linecap="round" stroke-linejoin="round"/>
<path d="M8.17188 15.6061L32.078 1.70721" stroke="#464C4A" stroke-width="1.5" stroke-linecap="round" stroke-linejoin="round"/>
<path d="M17.7343 20.3009L11.0896 24.0092C10.8525 24.1435 10.5493 24.2355 10.2183 24.2734C9.88739 24.3113 9.54372 24.2935 9.23099 24.2222C8.91826 24.1508 8.6506 24.0292 8.46202 23.8728C8.27343 23.7163 8.17244 23.5321 8.17188 23.3436V15.6061" stroke="#464C4A" stroke-width="1.5" stroke-linecap="round" stroke-linejoin="round"/>
</svg>
