<svg width="117" height="117" viewBox="0 0 117 117" fill="none" xmlns="http://www.w3.org/2000/svg">
<path d="M26.3252 11.7C18.248 11.7 11.7002 18.2479 11.7002 26.325V78.975C11.7002 87.0521 18.248 93.6 26.3252 93.6H55.427C56.0705 91.4852 57.0826 89.505 58.4126 87.75H26.3252C21.4789 87.75 17.5502 83.8212 17.5502 78.975V35.0926H87.7502V58.1646L88.3469 57.5678C89.9047 56.0103 91.6919 54.8226 93.6002 54.0051V26.325C93.6002 18.2479 87.0523 11.7 78.9752 11.7H26.3252ZM17.5445 26.3179C17.5445 21.4716 21.4732 17.5429 26.3195 17.5429H78.9693C83.8161 17.5429 87.7443 21.4716 87.7443 26.3179V29.2429H17.5445V26.3179ZM48.861 41.7994C50.0032 42.9417 50.0032 44.7937 48.861 45.936L36.3043 58.4927L48.861 71.0494C50.0032 72.1919 50.0032 74.0435 48.861 75.186C47.7187 76.3285 45.8667 76.3285 44.7244 75.186L30.0994 60.561C28.9571 59.4185 28.9571 57.5667 30.0994 56.4244L44.7244 41.7994C45.8667 40.6571 47.7187 40.6571 48.861 41.7994ZM59.3566 71.0494C58.2146 72.1919 58.2147 74.044 59.3566 75.186C60.4991 76.3285 62.3512 76.3285 63.4938 75.186L78.1188 60.561C79.2607 59.419 79.2607 57.5668 78.1188 56.4245L63.4938 41.7996C62.3512 40.6573 60.4991 40.6573 59.3566 41.7996C58.2147 42.9419 58.2147 44.7939 59.3566 45.9361L71.9137 58.4929L59.3566 71.0494ZM92.484 61.7046L64.232 89.9566C62.5847 91.604 61.4158 93.6679 60.8507 95.9277L58.6605 104.69C57.7076 108.501 61.1596 111.953 64.9703 111L73.733 108.809C75.9929 108.244 78.0567 107.076 79.7041 105.429L107.956 77.1767C112.228 72.9039 112.228 65.9769 107.956 61.7046C103.684 57.4319 96.7563 57.4319 92.484 61.7046Z" fill="#212121"/>
</svg>
