<svg width="104" height="104" viewBox="0 0 104 104" fill="none" xmlns="http://www.w3.org/2000/svg">
<path d="M30.3333 42.0427V93.3148H47.6667V42.0427H30.3333ZM34.6667 46.376H43.3333V88.9815H34.6667V46.376Z" fill="#E0E0E0"/>
<path d="M55.2923 59.1898V93.3148H72.6257V59.1898H55.2923ZM59.6256 63.5232H68.2923V88.9815H59.6256V63.5232Z" fill="#E0E0E0"/>
<path d="M6.5 59.1898V93.3148H23.8333V59.1898H6.5ZM10.8333 63.5232H19.5V88.9815H10.8333V63.5232Z" fill="#E0E0E0"/>
<path d="M80.1667 23.7953V93.3148H97.5V23.7953H80.1667ZM84.5 28.1286H93.1667V88.9815H84.5V28.1286Z" fill="#E0E0E0"/>
<path d="M6.5 10.7191C6.5 15.0299 6.5 19.3406 6.5 23.6514C9.54123 23.6514 12.5825 23.6514 15.6237 23.6514C15.6237 25.2679 15.6237 26.8845 15.6237 28.501C12.5825 28.501 9.54123 28.501 6.5 28.501C6.5 29.9455 6.5 31.3899 6.5 32.8344C10.9857 32.8344 15.4714 32.8344 19.957 32.8344C19.957 28.3289 19.957 23.8235 19.957 19.3181C16.9158 19.3181 13.8746 19.3181 10.8333 19.3181C10.8333 17.8962 10.8333 16.4743 10.8333 15.0524C13.8746 15.0524 16.9158 15.0524 19.957 15.0524C19.957 13.608 19.957 12.1636 19.957 10.7191C15.4714 10.7191 10.9857 10.7191 6.5 10.7191Z" fill="#E0E0E0"/>
<path d="M24.7389 10.6852V32.6481H38.3314V28.3148H29.0723V23.8291H35.0052V19.4958H29.0723V15.0186H38.3314V10.6852H24.7389Z" fill="#E0E0E0"/>
<path d="M41.7168 10.9053C41.7168 18.1783 41.7168 25.4513 41.7168 32.7243C46.4705 32.7243 51.2242 32.7243 55.9779 32.7243C55.9779 25.4513 55.9779 18.1783 55.9779 10.9053C51.2242 10.9053 46.4705 10.9053 41.7168 10.9053ZM46.0501 15.2386C47.9149 15.2386 49.7797 15.2386 51.6445 15.2386C51.6445 19.6227 51.6445 24.0068 51.6445 28.3909C49.7797 28.3909 47.9149 28.3909 46.0501 28.3909C46.0501 24.0068 46.0501 19.6227 46.0501 15.2386Z" fill="#E0E0E0"/>
</svg>
