<svg width="512" height="512" viewBox="0 0 512 512" fill="none" xmlns="http://www.w3.org/2000/svg">
<path d="M470.023 353.127C464.281 347.386 457.574 343.207 450.427 340.561V194.875C450.427 189.659 446.159 185.39 440.943 185.39C435.727 185.39 431.457 189.659 431.457 194.875V337.153C425.955 337.153 420.457 337.995 415.158 339.649V241.116C415.158 235.899 410.888 231.631 405.672 231.631C402.914 231.631 400.43 232.831 398.693 234.726V171.044C398.693 163.936 392.877 158.12 385.769 158.12C385.41 158.12 385.054 158.145 384.703 158.175V121.066C384.703 115.849 380.433 111.581 375.217 111.581C370.001 111.581 365.733 115.85 365.733 121.066V361.914C358.852 366.923 353.629 373.877 350.727 381.812C350.655 381.072 350.539 380.328 350.397 379.583V192.385C350.397 185.277 344.581 179.461 337.473 179.461C330.365 179.461 324.549 185.276 324.549 192.385V361.089C323.906 361.178 323.262 361.289 322.617 361.435C317.115 362.678 312.521 365.789 309.347 369.946C309.294 369.564 309.253 369.183 309.191 368.8C305.06 343.342 281.072 326.054 255.614 330.185C237.457 333.131 223.463 346.181 218.424 362.658C213.394 352.467 202.903 345.455 190.769 345.455C185.153 345.455 179.89 346.96 175.356 349.585V232.815C175.356 223.686 167.886 216.216 158.757 216.216C149.627 216.216 142.158 223.686 142.158 232.815V366.709C140.581 366.939 139.041 367.283 137.551 367.741C135.377 364.234 132.784 360.914 129.74 357.87C128.794 356.924 127.812 356.034 126.816 355.172V190.132C126.816 184.915 122.547 180.647 117.331 180.647C112.115 180.647 107.846 184.916 107.846 190.132V344.511C103.193 343.021 98.383 342.161 93.547 341.952V236.372C93.547 231.155 89.278 226.887 84.062 226.887C78.846 226.887 74.577 231.156 74.577 236.372V344.487C66.544 347.047 58.983 351.498 52.611 357.87C31.312 379.17 31.312 413.702 52.611 435.001C73.91 456.301 108.443 456.301 129.742 435.001C132.416 432.327 134.753 429.444 136.756 426.405C139.859 427.455 143.179 428.033 146.637 428.033C146.683 428.033 146.728 428.028 146.775 428.027C149.803 431.199 154.056 433.191 158.759 433.191C160.496 433.191 162.172 432.917 163.749 432.416C184.419 438.713 214.436 442.676 247.844 442.676C285.144 442.676 318.214 437.737 338.773 430.123C342.836 433.672 348.15 435.827 353.968 435.827C358.792 435.827 363.269 434.349 366.974 431.823C376.093 437.97 387.566 440.617 399.203 438.29C400.162 438.098 401.103 437.865 402.033 437.612C423.146 451.17 451.556 448.726 470.025 430.258C491.322 408.959 491.322 374.427 470.023 353.127Z" fill="#709A5A"/>
<path d="M261.316 468.761C350.371 468.761 422.564 458.41 422.564 445.641C422.564 432.872 350.371 422.521 261.316 422.521C172.261 422.521 100.068 432.872 100.068 445.641C100.068 458.41 172.261 468.761 261.316 468.761Z" fill="#455A53"/>
<path d="M470.023 353.127C464.281 347.386 457.574 343.207 450.427 340.561V194.875C450.427 189.659 446.159 185.39 440.943 185.39C435.727 185.39 431.457 189.659 431.457 194.875V337.153C425.955 337.153 420.457 337.995 415.158 339.649V241.116C415.158 235.899 410.888 231.631 405.672 231.631C400.457 231.631 396.188 235.9 396.188 241.116V350.11C395.061 351.068 393.956 352.063 392.893 353.127C392.678 353.341 392.481 353.565 392.272 353.78C389.778 353.697 387.249 353.824 384.704 354.195V121.064C384.704 115.847 380.434 111.579 375.218 111.579C370.002 111.579 365.734 115.848 365.734 121.064V361.912C358.853 366.921 353.63 373.875 350.728 381.81C350.634 380.84 350.486 379.867 350.267 378.89C347.453 366.435 335.074 358.619 322.619 361.434C317.117 362.677 312.523 365.788 309.349 369.945C309.296 369.563 309.255 369.182 309.193 368.799C305.062 343.341 281.074 326.053 255.616 330.184C237.459 333.13 223.465 346.18 218.426 362.657C213.396 352.466 202.905 345.454 190.771 345.454C175.988 345.454 163.641 355.862 160.644 369.749C156.44 367.601 151.683 366.38 146.637 366.38C143.475 366.38 140.425 366.859 137.553 367.742C135.379 364.235 132.786 360.915 129.742 357.871C128.796 356.925 127.814 356.035 126.818 355.173V190.133C126.818 184.916 122.549 180.648 117.333 180.648C112.117 180.648 107.848 184.917 107.848 190.133V344.512C103.195 343.022 98.385 342.162 93.549 341.953V236.373C93.549 231.156 89.28 226.888 84.064 226.888C78.848 226.888 74.579 231.157 74.579 236.373V344.488C66.546 347.048 58.985 351.499 52.613 357.871C31.314 379.171 31.314 413.703 52.613 435.002C73.912 456.302 108.445 456.302 129.744 435.002C132.418 432.328 134.755 429.445 136.758 426.406C139.861 427.456 143.181 428.034 146.639 428.034C148.132 428.034 149.597 427.922 151.034 427.717C170.781 436.681 206.747 442.677 247.847 442.677C285.147 442.677 318.217 437.738 338.776 430.124C342.839 433.673 348.153 435.828 353.971 435.828C358.795 435.828 363.272 434.35 366.977 431.824C376.096 437.971 387.569 440.618 399.206 438.291C400.165 438.099 401.106 437.866 402.036 437.613C423.149 451.171 451.559 448.727 470.028 430.259C491.322 408.959 491.322 374.427 470.023 353.127Z" fill="#464C4A"/>
<path d="M279.375 306.554H243.26L234.326 407.803H288.307L279.375 306.554Z" fill="#FF7143"/>
<path d="M252.254 306.554L244.857 407.803H277.775L270.379 306.554H252.254Z" fill="#FFD800"/>
<path d="M282.659 289.914H239.976V306.554H282.659V289.914Z" fill="#52C9D5"/>
<path d="M282.659 289.914H239.976V306.554H282.659V289.914Z" fill="#52C9D5"/>
<path d="M240.101 318.129H206.822L212.664 277.477L230.696 248.678H240.101V318.129Z" fill="#DDDDDD"/>
<path d="M282.533 318.129H315.811L309.969 277.477L291.938 248.678H282.533V318.129Z" fill="#C6C6C6"/>
<path d="M261.361 30.2V30.197C261.345 30.197 261.332 30.198 261.316 30.198C261.3 30.198 261.287 30.197 261.271 30.197V30.2C237.939 30.29 219.04 104.83 219.04 165.482C219.04 201.691 227.174 265.725 239.296 289.914C239.296 289.914 259.765 289.914 261.271 289.914C261.324 289.914 261.357 289.914 261.361 289.914C262.867 289.914 283.336 289.914 283.336 289.914C295.459 265.725 303.594 201.691 303.594 165.482C303.594 104.83 284.693 30.29 261.361 30.2Z" fill="#F4F4F4"/>
<path d="M261.317 199.728C275.404 199.728 286.823 188.309 286.823 174.222C286.823 160.135 275.404 148.716 261.317 148.716C247.23 148.716 235.811 160.135 235.811 174.222C235.811 188.309 247.23 199.728 261.317 199.728Z" fill="#709A5A"/>
<path d="M261.316 191.792C271.02 191.792 278.886 183.926 278.886 174.222C278.886 164.518 271.02 156.652 261.316 156.652C251.612 156.652 243.746 164.518 243.746 174.222C243.746 183.926 251.612 191.792 261.316 191.792Z" fill="white"/>
<path d="M282.659 289.914H239.976V306.554H282.659V289.914Z" fill="#709A5A"/>
<path d="M261.316 30.199C261.3 30.199 261.287 30.198 261.271 30.198V30.2C243.811 30.267 228.834 72.027 222.401 118.458H300.23C293.798 72.026 278.822 30.267 261.361 30.2V30.197C261.346 30.197 261.332 30.199 261.316 30.199Z" fill="#709A5A"/>
<path d="M282.658 289.914H261.551V306.554H282.658V289.914Z" fill="#455A53"/>
<path d="M261.551 30.21V289.914C264.084 289.914 283.336 289.914 283.336 289.914C295.459 265.725 303.594 201.691 303.594 165.482C303.594 104.994 284.795 30.7 261.551 30.21Z" fill="#E0E0E0"/>
<path d="M261.551 148.723V199.722C275.528 199.596 286.822 188.23 286.822 174.222C286.822 160.214 275.527 148.849 261.551 148.723Z" fill="#455A53"/>
<path d="M261.551 156.663V191.78C271.145 191.654 278.887 183.846 278.887 174.221C278.887 164.596 271.145 156.79 261.551 156.663Z" fill="#F4F4F4"/>
<path d="M261.551 118.458H300.231C293.821 72.193 278.93 30.573 261.551 30.207V118.458Z" fill="#455A53"/>
<path d="M25.076 460.461C30.3144 460.461 34.561 456.214 34.561 450.976C34.561 445.738 30.3144 441.491 25.076 441.491C19.8376 441.491 15.591 445.738 15.591 450.976C15.591 456.214 19.8376 460.461 25.076 460.461Z" fill="#464C4A"/>
<path d="M158.312 345.751C168.789 345.751 177.282 337.258 177.282 326.781C177.282 316.304 168.789 307.811 158.312 307.811C147.835 307.811 139.342 316.304 139.342 326.781C139.342 337.258 147.835 345.751 158.312 345.751Z" fill="#464C4A"/>
<path d="M370.102 475.875C375.34 475.875 379.587 471.628 379.587 466.39C379.587 461.152 375.34 456.905 370.102 456.905C364.864 456.905 360.617 461.152 360.617 466.39C360.617 471.628 364.864 475.875 370.102 475.875Z" fill="#464C4A"/>
<path d="M200.134 403.375C207.211 403.375 212.948 397.638 212.948 390.561C212.948 383.484 207.211 377.747 200.134 377.747C193.057 377.747 187.32 383.484 187.32 390.561C187.32 397.638 193.057 403.375 200.134 403.375Z" fill="#709A5A"/>
<path d="M266.986 418.984C270.757 418.984 273.814 415.927 273.814 412.156C273.814 408.385 270.757 405.328 266.986 405.328C263.215 405.328 260.158 408.385 260.158 412.156C260.158 415.927 263.215 418.984 266.986 418.984Z" fill="#5AA096"/>
<path d="M72.994 419.339C78.2324 419.339 82.479 415.092 82.479 409.854C82.479 404.616 78.2324 400.369 72.994 400.369C67.7556 400.369 63.509 404.616 63.509 409.854C63.509 415.092 67.7556 419.339 72.994 419.339Z" fill="#E0E0E0"/>
<path d="M459.606 418.718C464.845 418.718 469.092 414.471 469.092 409.232C469.092 403.993 464.845 399.746 459.606 399.746C454.367 399.746 450.12 403.993 450.12 409.232C450.12 414.471 454.367 418.718 459.606 418.718Z" fill="#E0E0E0"/>
<path d="M320.383 421.13C329.223 421.13 336.389 413.964 336.389 405.124C336.389 396.284 329.223 389.118 320.383 389.118C311.543 389.118 304.377 396.284 304.377 405.124C304.377 413.964 311.543 421.13 320.383 421.13Z" fill="#709A5A"/>
<path d="M445.982 424.892C443.505 424.892 441.113 425.245 438.843 425.889C438.853 425.557 438.868 425.227 438.868 424.892C438.868 405.902 423.473 390.508 404.483 390.508C385.495 390.508 370.1 405.902 370.1 424.892C370.1 443.881 385.495 459.276 404.483 459.276C410.182 459.276 415.551 457.881 420.284 455.428C422.397 467.711 433.095 477.061 445.981 477.061C460.387 477.061 472.065 465.382 472.065 450.976C472.065 436.57 460.389 424.892 445.982 424.892Z" fill="#709A5A"/>
<path d="M211.224 481.803C221.701 481.803 230.195 473.309 230.195 462.832C230.195 452.355 221.701 443.861 211.224 443.861C200.747 443.861 192.253 452.355 192.253 462.832C192.253 473.309 200.747 481.803 211.224 481.803Z" fill="#709A5A"/>
<path d="M164.339 414.839C156.931 407.431 144.92 407.431 137.511 414.839C136.148 416.203 135.04 417.724 134.178 419.342C126.819 413.322 117.018 410.361 106.896 412.003C88.151 415.045 75.422 432.707 78.464 451.451C81.506 470.195 99.167 482.925 117.912 479.883C134.531 477.186 146.412 462.994 146.775 446.748C152.901 448.116 159.572 446.435 164.339 441.667C171.748 434.259 171.748 422.248 164.339 414.839Z" fill="#709A5A"/>
<path d="M170.606 118.445L175.799 128.966L187.409 130.653L179.008 138.842L180.991 150.406L170.606 144.946L160.221 150.406L162.205 138.842L153.803 130.653L165.414 128.966L170.606 118.445Z" fill="#FFD326"/>
<path d="M479.605 248.445L484.799 258.966L496.408 260.652L488.008 268.842L489.99 280.406L479.605 274.946L469.221 280.406L471.205 268.842L462.803 260.652L474.414 258.966L479.605 248.445Z" fill="#FFD326"/>
<path d="M34.606 279.445L39.799 289.966L51.409 291.652L43.008 299.842L44.991 311.406L34.606 305.946L24.221 311.406L26.205 299.842L17.803 291.652L29.414 289.966L34.606 279.445Z" fill="#FFD326"/>
</svg>
