<svg width="79" height="78" viewBox="0 0 79 78" fill="none" xmlns="http://www.w3.org/2000/svg">
<path d="M38.4819 2.50216C38.7378 1.71459 39.852 1.71458 40.1079 2.50216L47.859 26.3577C47.9735 26.7099 48.3017 26.9483 48.672 26.9483H73.7552C74.5833 26.9483 74.9276 28.008 74.2577 28.4948L53.965 43.2383C53.6654 43.4559 53.54 43.8418 53.6544 44.194L61.4055 68.0495C61.6614 68.8371 60.76 69.492 60.0901 69.0052L39.7974 54.2617C39.4978 54.0441 39.0921 54.0441 38.7925 54.2617L18.4998 69.0052C17.8298 69.492 16.9284 68.8371 17.1843 68.0495L24.9354 44.194C25.0499 43.8418 24.9245 43.4559 24.6249 43.2383L4.33218 28.4948C3.66223 28.008 4.00654 26.9483 4.83464 26.9483H29.9178C30.2881 26.9483 30.6164 26.7099 30.7308 26.3577L38.4819 2.50216Z" fill="#709A5A"/>
</svg>
