<svg width="38" height="38" viewBox="0 0 38 38" fill="none" xmlns="http://www.w3.org/2000/svg">
<path d="M25.8612 32.1144H19.4301C18.1754 32.1156 16.9306 31.8918 15.7548 31.4539L10.7451 29.5932C10.4707 29.4886 10.2487 29.2799 10.1275 29.0124C10.0064 28.7449 9.99576 28.4404 10.098 28.1651C10.2003 27.8899 10.4072 27.6662 10.6737 27.5428C10.9401 27.4194 11.2446 27.4062 11.5207 27.5062L16.5297 29.3668C17.4578 29.7117 18.4401 29.8876 19.4301 29.8864H25.8612C26.1409 29.8864 26.4092 29.7753 26.607 29.5775C26.8047 29.3797 26.9159 29.1114 26.9159 28.8317C26.9159 28.552 26.8047 28.2838 26.607 28.086C26.4092 27.8882 26.1409 27.7771 25.8612 27.7771C25.5659 27.7771 25.2828 27.6598 25.074 27.451C24.8652 27.2422 24.7479 26.9591 24.7479 26.6638C24.7479 26.3685 24.8652 26.0854 25.074 25.8766C25.2828 25.6678 25.5659 25.5505 25.8612 25.5505H27.379C27.6587 25.5505 27.9269 25.4394 28.1247 25.2416C28.3225 25.0438 28.4336 24.7756 28.4336 24.4959C28.4336 24.2162 28.3225 23.9479 28.1247 23.7501C27.9269 23.5523 27.6587 23.4412 27.379 23.4412C27.0837 23.4412 26.8005 23.3239 26.5918 23.1152C26.383 22.9064 26.2657 22.6232 26.2657 22.3279C26.2657 22.0327 26.383 21.7495 26.5918 21.5407C26.8005 21.332 27.0837 21.2147 27.379 21.2147H28.896C29.1046 21.2147 29.3086 21.1529 29.4821 21.037C29.6556 20.9211 29.7908 20.7564 29.8707 20.5637C29.9505 20.3709 29.9714 20.1588 29.9307 19.9542C29.89 19.7496 29.7895 19.5616 29.6419 19.4141C29.5443 19.3158 29.428 19.2378 29.3 19.1848C29.1719 19.1318 29.0346 19.1048 28.896 19.1054C28.6007 19.1054 28.3176 18.9881 28.1088 18.7793C27.9 18.5705 27.7827 18.2873 27.7827 17.9921C27.7827 17.6968 27.9 17.4137 28.1088 17.2049C28.3176 16.9961 28.6007 16.8788 28.896 16.8788H30.4138C30.6221 16.8781 30.8256 16.8158 30.9985 16.6996C31.1714 16.5835 31.306 16.4187 31.3854 16.2261C31.4648 16.0335 31.4854 15.8217 31.4446 15.6174C31.4037 15.4131 31.3033 15.2255 31.156 15.0783C31.0588 14.9802 30.9432 14.9024 30.8158 14.8493C30.6884 14.7962 30.5518 14.7688 30.4138 14.7688H19.9014C19.7077 14.769 19.5173 14.7187 19.3489 14.6228C19.1806 14.5269 19.0402 14.3887 18.9417 14.2219C18.8431 14.0551 18.7897 13.8655 18.7869 13.6718C18.7841 13.4781 18.8318 13.287 18.9255 13.1174C19.2637 12.4312 19.494 11.697 19.6083 10.9406C19.8599 9.3174 19.5496 7.85009 18.6865 6.57947C18.5754 6.42121 18.4168 6.30239 18.2337 6.2402C18.0506 6.17801 17.8525 6.17567 17.6679 6.23351C17.4834 6.29135 17.3221 6.40638 17.2073 6.56197C17.0924 6.71755 17.0301 6.90563 17.0292 7.099C17.0655 10.9124 15.3036 13.6837 11.9341 15.1146C11.799 15.175 11.6532 15.2079 11.5052 15.2113C11.3573 15.2148 11.2101 15.1886 11.0724 15.1345C10.9346 15.0804 10.8091 14.9994 10.703 14.8961C10.597 14.7929 10.5126 14.6696 10.4547 14.5334C10.3969 14.3971 10.3668 14.2507 10.3663 14.1028C10.3657 13.9548 10.3946 13.8081 10.4513 13.6715C10.5081 13.5348 10.5915 13.4108 10.6968 13.3067C10.802 13.2027 10.9269 13.1207 11.0642 13.0654C12.4536 12.4717 13.4659 11.5996 14.0738 10.4619C14.5696 9.53337 14.816 8.4097 14.8034 7.12201C14.7922 5.71482 15.6598 4.52732 17.0091 4.10724C18.3584 3.68716 19.7411 4.16513 20.5308 5.32888C22.3648 8.02748 22.0337 10.8285 21.5313 12.5437H30.4138C31.1542 12.5438 31.8727 12.7943 32.4527 13.2544C33.0327 13.7146 33.4401 14.3574 33.6085 15.0783C33.777 15.7993 33.6967 16.556 33.3806 17.2255C33.0646 17.8951 32.5314 18.438 31.8677 18.7662C32.2314 19.5438 32.2763 20.4329 31.9928 21.2433C31.7093 22.0536 31.1199 22.7208 30.3507 23.102C30.7146 23.8799 30.7595 24.7692 30.4758 25.5797C30.1921 26.3903 29.6024 27.0575 28.8329 27.4386C29.0673 27.9386 29.1717 28.4897 29.1365 29.0408C29.1014 29.5918 28.9278 30.1251 28.6318 30.5913C28.3358 31.0575 27.927 31.4414 27.4432 31.7077C26.9595 31.9739 26.4164 32.1138 25.8642 32.1144H25.8612Z" fill="white"/>
<path d="M11.504 30.4661H5.13086C4.8356 30.4661 4.55243 30.3488 4.34365 30.14C4.13487 29.9312 4.01758 29.648 4.01758 29.3528V14.0912C4.01758 13.7959 4.13487 13.5128 4.34365 13.304C4.55243 13.0952 4.8356 12.9779 5.13086 12.9779H11.504C11.7993 12.9779 12.0825 13.0952 12.2912 13.304C12.5 13.5128 12.6173 13.7959 12.6173 14.0912V29.3528C12.6173 29.648 12.5 29.9312 12.2912 30.14C12.0825 30.3488 11.7993 30.4661 11.504 30.4661ZM6.24637 28.2395H10.3907V15.2045H6.24414L6.24637 28.2395Z" fill="white"/>
</svg>
