<svg width="373" height="24" viewBox="0 0 373 24" fill="none" xmlns="http://www.w3.org/2000/svg">
<path d="M1.27734 4.19531C0.691406 4.19531 0.398438 3.94141 0.398438 3.43359V1.95703C0.398438 1.44922 0.691406 1.19531 1.27734 1.19531H13.3242C13.9102 1.19531 14.2031 1.44922 14.2031 1.95703V3.43359C14.2031 3.94141 13.9102 4.19531 13.3242 4.19531H9.01172V17.3555C9.01172 17.7852 8.81641 18 8.42578 18H6.17578C5.78516 18 5.58984 17.7852 5.58984 17.3555V4.19531H1.27734ZM12.4688 11.8477C12.4688 9.85547 12.9805 8.29297 14.0039 7.16016C15.0352 6.02734 16.5664 5.46094 18.5977 5.46094C20.6289 5.46094 22.1562 6.02734 23.1797 7.16016C24.2109 8.29297 24.7266 9.85547 24.7266 11.8477C24.7266 13.8398 24.2109 15.4023 23.1797 16.5352C22.1562 17.668 20.6289 18.2344 18.5977 18.2344C16.5664 18.2344 15.0352 17.668 14.0039 16.5352C12.9805 15.4023 12.4688 13.8398 12.4688 11.8477ZM15.9375 11.8477C15.9375 13.332 16.1641 14.3867 16.6172 15.0117C17.0781 15.6289 17.7383 15.9375 18.5977 15.9375C19.457 15.9375 20.1133 15.6289 20.5664 15.0117C21.0273 14.3867 21.2578 13.332 21.2578 11.8477C21.2578 10.3633 21.0273 9.3125 20.5664 8.69531C20.1133 8.07031 19.457 7.75781 18.5977 7.75781C17.7383 7.75781 17.0781 8.07031 16.6172 8.69531C16.1641 9.3125 15.9375 10.3633 15.9375 11.8477ZM27.9609 18C27.4922 18 27.2578 17.7656 27.2578 17.2969V6.39844C27.2578 5.92969 27.4922 5.69531 27.9609 5.69531H29.8125C30.2812 5.69531 30.5156 5.92969 30.5156 6.39844V7.07812H30.5625C30.7891 6.57812 31.1719 6.18359 31.7109 5.89453C32.25 5.60547 32.7539 5.46094 33.2227 5.46094C34.1602 5.46094 34.8867 5.67969 35.4023 6.11719C35.9258 6.55469 36.2852 7.04297 36.4805 7.58203H36.5273C37.207 6.69922 37.8203 6.125 38.3672 5.85938C38.9219 5.59375 39.6289 5.46094 40.4883 5.46094C41.6445 5.46094 42.6172 5.84375 43.4062 6.60938C44.2031 7.375 44.6016 8.77344 44.6016 10.8047V17.2969C44.6016 17.7656 44.3672 18 43.8984 18H42.0234C41.5547 18 41.3203 17.7656 41.3203 17.2969V11.6484C41.3203 9.94531 41.2031 8.87109 40.9688 8.42578C40.7422 7.98047 40.3359 7.75781 39.75 7.75781C39.2031 7.75781 38.7031 8.07812 38.25 8.71875C37.7969 9.35938 37.5703 10.6797 37.5703 12.6797V17.2969C37.5703 17.7656 37.3359 18 36.8672 18H34.9922C34.5234 18 34.2891 17.7656 34.2891 17.2969V11.6484C34.2891 9.94531 34.1719 8.87109 33.9375 8.42578C33.7109 7.98047 33.3047 7.75781 32.7188 7.75781C32.1719 7.75781 31.6719 8.07812 31.2188 8.71875C30.7656 9.35156 30.5391 10.6719 30.5391 12.6797V17.2969C30.5391 17.7656 30.3047 18 29.8359 18H27.9609ZM57.0703 18C56.5234 18 56.25 17.707 56.25 17.1211V2.07422C56.25 1.48828 56.5234 1.19531 57.0703 1.19531H66.3398C66.9258 1.19531 67.2188 1.44922 67.2188 1.95703V3.33984C67.2188 3.84766 66.9258 4.10156 66.3398 4.10156H59.6719V8.17969H65.3789C65.9648 8.17969 66.2578 8.43359 66.2578 8.94141V10.3242C66.2578 10.832 65.9648 11.0859 65.3789 11.0859H59.6719V17.1211C59.6719 17.707 59.3984 18 58.8516 18H57.0703ZM69.0938 14.7188C69.0938 13.1562 69.8398 12.0234 71.332 11.3203C72.8242 10.6172 74.5273 10.2422 76.4414 10.1953V9.72656C76.4414 9.00781 76.2617 8.5 75.9023 8.20312C75.543 7.90625 75.043 7.75781 74.4023 7.75781C73.9492 7.75781 73.5469 7.82422 73.1953 7.95703C72.8516 8.08203 72.5508 8.23047 72.293 8.40234C72.043 8.56641 71.8164 8.73438 71.6133 8.90625C71.2539 9.21875 70.957 9.23438 70.7227 8.95312L69.75 7.75781C69.5078 7.46094 69.5664 7.15625 69.9258 6.84375C70.1992 6.60156 70.5156 6.39062 70.875 6.21094C71.2422 6.03125 71.7266 5.86328 72.3281 5.70703C72.9297 5.54297 73.7109 5.46094 74.6719 5.46094C76.2969 5.46094 77.543 5.83594 78.4102 6.58594C79.2852 7.33594 79.7227 8.44141 79.7227 9.90234V17.2969C79.7227 17.7656 79.4883 18 79.0195 18H77.0977C76.6758 18 76.4648 17.7656 76.4648 17.2969V16.9453H76.4414C75.9805 17.3906 75.4258 17.7188 74.7773 17.9297C74.1367 18.1328 73.5469 18.2344 73.0078 18.2344C71.7266 18.2344 70.7539 17.9219 70.0898 17.2969C69.4258 16.6641 69.0938 15.8047 69.0938 14.7188ZM72.5625 14.6484C72.5625 14.9219 72.6172 15.1602 72.7266 15.3633C72.8359 15.5586 73.0078 15.7031 73.2422 15.7969C73.4766 15.8906 73.7383 15.9375 74.0273 15.9375C74.4258 15.9375 74.8125 15.8828 75.1875 15.7734C75.5625 15.6641 75.9805 15.4062 76.4414 15V12.457C75.1289 12.6055 74.25 12.7969 73.8047 13.0312C73.3594 13.2656 73.0391 13.5078 72.8438 13.7578C72.6562 14.0078 72.5625 14.3047 72.5625 14.6484ZM83.625 18C83.1562 18 82.9219 17.7656 82.9219 17.2969V6.39844C82.9219 5.92969 83.1562 5.69531 83.625 5.69531H85.4766C85.9453 5.69531 86.1797 5.92969 86.1797 6.39844V7.35938H86.2266C86.4297 6.85938 86.7695 6.41797 87.2461 6.03516C87.7227 5.65234 88.2852 5.46094 88.9336 5.46094C89.3789 5.46094 89.7461 5.51562 90.0352 5.625C90.3086 5.72656 90.4141 5.91406 90.3516 6.1875L90.0234 7.58203C89.9531 7.89453 89.7422 7.98828 89.3906 7.86328C89.1875 7.79297 88.9922 7.75781 88.8047 7.75781C88.0547 7.75781 87.4336 8.20703 86.9414 9.10547C86.4492 10.0039 86.2031 11.3125 86.2031 13.0312V17.2969C86.2031 17.7656 85.9688 18 85.5 18H83.625ZM91.4766 11.8477C91.4766 9.87109 91.9688 8.3125 92.9531 7.17188C93.9453 6.03125 95.3438 5.46094 97.1484 5.46094C99.2422 5.46094 100.797 6 101.812 7.07812C102.828 8.15625 103.336 9.89062 103.336 12.2812C103.336 12.75 103.117 12.9844 102.68 12.9844H94.9453C95.0703 14.2812 95.3906 15.0977 95.9062 15.4336C96.4219 15.7695 97.0195 15.9375 97.6992 15.9375C98.3477 15.9375 98.8438 15.8516 99.1875 15.6797C99.5312 15.5078 99.8203 15.2734 100.055 14.9766C100.32 14.6328 100.648 14.5781 101.039 14.8125L102.211 15.5273C102.672 15.8086 102.738 16.1445 102.41 16.5352C101.934 17.1055 101.375 17.5312 100.734 17.8125C100.094 18.0938 99.082 18.2344 97.6992 18.2344C95.457 18.2344 93.8594 17.6641 92.9062 16.5234C91.9531 15.3828 91.4766 13.8242 91.4766 11.8477ZM94.957 10.6406H100.055C100.055 9.79688 99.8438 9.10938 99.4219 8.57812C99 8.03906 98.3281 7.76953 97.4062 7.76953C96.6719 7.76953 96.0898 8.02734 95.6602 8.54297C95.2305 9.05078 94.9961 9.75 94.957 10.6406ZM106.594 18C106.125 18 105.891 17.7656 105.891 17.2969V6.39844C105.891 5.92969 106.125 5.69531 106.594 5.69531H108.445C108.914 5.69531 109.148 5.92969 109.148 6.39844V7.07812H109.195C109.555 6.46094 110.012 6.03906 110.566 5.8125C111.121 5.57812 111.789 5.46094 112.57 5.46094C113.789 5.46094 114.797 5.84375 115.594 6.60938C116.391 7.375 116.789 8.77344 116.789 10.8047V17.2969C116.789 17.7656 116.555 18 116.086 18H114.211C113.742 18 113.508 17.7656 113.508 17.2969V11.6484C113.508 9.94531 113.391 8.87109 113.156 8.42578C112.922 7.98047 112.418 7.75781 111.645 7.75781C110.824 7.75781 110.207 8.07812 109.793 8.71875C109.379 9.35156 109.172 10.6719 109.172 12.6797V17.2969C109.172 17.7656 108.938 18 108.469 18H106.594ZM119.297 11.8477C119.297 9.85547 119.797 8.29297 120.797 7.16016C121.797 6.02734 123.332 5.46094 125.402 5.46094C126.613 5.46094 127.555 5.62109 128.227 5.94141C128.898 6.26172 129.438 6.73047 129.844 7.34766C130.086 7.71484 130.047 8.00391 129.727 8.21484L128.484 9.03516C128.133 9.26953 127.824 9.17969 127.559 8.76562C127.426 8.5625 127.172 8.34375 126.797 8.10938C126.422 7.875 125.957 7.75781 125.402 7.75781C124.52 7.75781 123.859 8.07031 123.422 8.69531C122.984 9.3125 122.766 10.3633 122.766 11.8477C122.766 13.332 122.984 14.3867 123.422 15.0117C123.859 15.6289 124.52 15.9375 125.402 15.9375C126.035 15.9375 126.547 15.8047 126.938 15.5391C127.328 15.2734 127.695 14.9297 128.039 14.5078C128.336 14.1484 128.648 14.0977 128.977 14.3555L130.066 15.2109C130.395 15.4688 130.414 15.8125 130.125 16.2422C129.82 16.6953 129.301 17.1406 128.566 17.5781C127.84 18.0156 126.785 18.2344 125.402 18.2344C123.332 18.2344 121.797 17.668 120.797 16.5352C119.797 15.4023 119.297 13.8398 119.297 11.8477ZM133.383 18C132.914 18 132.68 17.7656 132.68 17.2969V6.39844C132.68 5.92969 132.914 5.69531 133.383 5.69531H135.258C135.727 5.69531 135.961 5.92969 135.961 6.39844V17.2969C135.961 17.7656 135.727 18 135.258 18H133.383ZM133.383 3.89062C132.914 3.89062 132.68 3.65625 132.68 3.1875V1.6875C132.68 1.21875 132.914 0.984375 133.383 0.984375H135.258C135.727 0.984375 135.961 1.21875 135.961 1.6875V3.1875C135.961 3.65625 135.727 3.89062 135.258 3.89062H133.383ZM148.863 23.1562C148.473 23.1562 148.277 22.9219 148.277 22.4531V1.17188C148.277 0.703125 148.473 0.46875 148.863 0.46875H150.035C150.426 0.46875 150.621 0.703125 150.621 1.17188V22.4531C150.621 22.9219 150.426 23.1562 150.035 23.1562H148.863Z" fill="#1E1E1E"/>
<path d="M163.6 18C163.258 18 163.087 17.812 163.087 17.436V3.85986C163.087 3.48389 163.258 3.2959 163.6 3.2959H165.784C166.043 3.2959 166.238 3.50098 166.368 3.91113L169.301 13.1089C169.602 14.0522 169.779 14.623 169.834 14.8213C169.889 15.0127 169.967 15.3682 170.07 15.8877H170.131C170.234 15.3682 170.312 15.0127 170.367 14.8213C170.422 14.623 170.6 14.0522 170.9 13.1089L173.833 3.91113C173.963 3.50098 174.158 3.2959 174.417 3.2959H176.602C176.943 3.2959 177.114 3.48389 177.114 3.85986V17.436C177.114 17.812 176.943 18 176.602 18H175.658C175.316 18 175.146 17.812 175.146 17.436V6.67969C175.146 6.40625 175.152 6.13281 175.166 5.85938H175.125L171.341 17.3745C171.205 17.7915 170.979 18 170.665 18H169.537C169.222 18 168.997 17.7915 168.86 17.3745L165.076 5.85938H165.035C165.049 6.13281 165.056 6.40625 165.056 6.67969V17.436C165.056 17.812 164.885 18 164.543 18H163.6ZM179.729 15.1289C179.729 13.9121 180.296 13.02 181.431 12.4526C182.573 11.8853 184.275 11.5537 186.538 11.458V10.7607C186.538 10.1182 186.391 9.56445 186.097 9.09961C185.81 8.62793 185.235 8.39209 184.374 8.39209C183.827 8.39209 183.39 8.44678 183.062 8.55615C182.733 8.65869 182.433 8.79883 182.159 8.97656C181.893 9.14746 181.636 9.36963 181.39 9.64307C181.206 9.84814 181.031 9.8584 180.867 9.67383L180.334 9.05859C180.184 8.8877 180.235 8.68262 180.488 8.44336C180.85 8.10156 181.202 7.84521 181.544 7.67432C181.886 7.50342 182.31 7.35986 182.815 7.24365C183.328 7.12061 183.848 7.05908 184.374 7.05908C185.803 7.05908 186.821 7.42822 187.43 8.1665C188.038 8.89795 188.342 9.90283 188.342 11.1812V17.5386C188.342 17.8462 188.188 18 187.881 18H186.958C186.691 18 186.558 17.8462 186.558 17.5386V17.0361H186.538C185.998 17.46 185.468 17.7573 184.948 17.9282C184.436 18.0923 183.861 18.1743 183.226 18.1743C182.104 18.1743 181.24 17.9077 180.631 17.3745C180.03 16.8345 179.729 16.0859 179.729 15.1289ZM181.595 15.1699C181.595 15.5938 181.684 15.9355 181.862 16.1953C182.04 16.4482 182.286 16.6123 182.6 16.6875C182.915 16.7559 183.243 16.79 183.584 16.79C184.111 16.79 184.61 16.7388 185.082 16.6362C185.553 16.5337 186.039 16.2637 186.538 15.8262V12.8013C185.157 12.9038 184.172 13.0303 183.584 13.1807C182.997 13.3242 182.518 13.5771 182.149 13.9395C181.78 14.2949 181.595 14.7051 181.595 15.1699ZM191.726 18C191.418 18 191.265 17.8462 191.265 17.5386V7.69482C191.265 7.38721 191.418 7.2334 191.726 7.2334H192.587C192.895 7.2334 193.049 7.38721 193.049 7.69482V8.92529H193.09C193.418 8.31006 193.804 7.84521 194.249 7.53076C194.693 7.21631 195.247 7.05908 195.91 7.05908C196.347 7.05908 196.655 7.09668 196.833 7.17188C196.99 7.2334 197.048 7.33594 197.007 7.47949L196.771 8.32031C196.737 8.44336 196.648 8.49121 196.504 8.46387C196.265 8.41602 196.04 8.39209 195.828 8.39209C195.028 8.39209 194.368 8.75439 193.849 9.479C193.329 10.1968 193.069 11.1777 193.069 12.4219V17.5386C193.069 17.8462 192.916 18 192.608 18H191.726ZM199.129 18C198.822 18 198.668 17.8462 198.668 17.5386V3.32666C198.668 3.01904 198.822 2.86523 199.129 2.86523H200.011C200.319 2.86523 200.473 3.01904 200.473 3.32666V11.8579C200.473 12.063 200.466 12.2681 200.452 12.4731H200.473L204.625 7.5C204.776 7.32227 204.957 7.2334 205.169 7.2334H206.102C206.622 7.2334 206.71 7.43506 206.369 7.83838L203.149 11.6733L206.83 17.395C207.09 17.7983 207.001 18 206.563 18H205.559C205.333 18 205.138 17.8735 204.974 17.6206L202.021 13.0166L200.473 14.8623V17.5386C200.473 17.8462 200.319 18 200.011 18H199.129ZM208.378 12.6167C208.378 10.9214 208.802 9.57129 209.65 8.56641C210.498 7.56152 211.711 7.05908 213.29 7.05908C214.603 7.05908 215.689 7.52051 216.551 8.44336C217.419 9.35938 217.853 10.8257 217.853 12.8423C217.853 13.1499 217.713 13.3037 217.433 13.3037H210.286C210.402 14.623 210.757 15.5425 211.352 16.062C211.947 16.5747 212.62 16.8311 213.372 16.8311C214.165 16.8311 214.773 16.6978 215.197 16.4312C215.621 16.1646 215.932 15.9014 216.13 15.6416C216.349 15.3545 216.561 15.2998 216.766 15.4775L217.371 16.0005C217.528 16.1372 217.528 16.3252 217.371 16.5645C217.241 16.7627 216.869 17.0806 216.253 17.5181C215.645 17.9556 214.685 18.1743 213.372 18.1743C211.663 18.1743 210.402 17.6719 209.588 16.667C208.782 15.6621 208.378 14.312 208.378 12.6167ZM210.245 11.9707H216.038C216.011 11.0137 215.765 10.1763 215.3 9.4585C214.835 8.73389 214.151 8.37158 213.249 8.37158C212.456 8.37158 211.783 8.63818 211.229 9.17139C210.675 9.69775 210.347 10.6309 210.245 11.9707ZM219.699 8.58691C219.391 8.58691 219.237 8.46729 219.237 8.22803V7.59229C219.237 7.35303 219.391 7.2334 219.699 7.2334H220.909V6.31055C220.909 6.17383 220.943 6.04395 221.011 5.9209L221.729 4.61865C221.859 4.37939 221.965 4.25977 222.047 4.25977H222.406C222.611 4.25977 222.713 4.37939 222.713 4.61865V7.2334H224.897C225.205 7.2334 225.359 7.35303 225.359 7.59229V8.22803C225.359 8.46729 225.205 8.58691 224.897 8.58691H222.713V15.1187C222.713 15.8364 222.819 16.3047 223.031 16.5234C223.25 16.7354 223.51 16.8413 223.811 16.8413C224.043 16.8413 224.32 16.7729 224.641 16.6362C224.969 16.4995 225.195 16.3833 225.318 16.2876C225.441 16.1919 225.537 16.2227 225.605 16.3799L225.943 17.1694C225.998 17.3062 225.957 17.4155 225.82 17.4976C225.554 17.6548 225.164 17.8086 224.651 17.959C224.139 18.1025 223.626 18.1743 223.113 18.1743C222.402 18.1743 221.855 17.918 221.473 17.4053C221.097 16.8926 220.909 16.168 220.909 15.2314V8.58691H219.699ZM228.456 18C228.148 18 227.994 17.8462 227.994 17.5386V7.69482C227.994 7.38721 228.148 7.2334 228.456 7.2334H229.337C229.645 7.2334 229.799 7.38721 229.799 7.69482V17.5386C229.799 17.8462 229.645 18 229.337 18H228.456ZM228.456 5.28516C228.148 5.28516 227.994 5.13135 227.994 4.82373V3.94189C227.994 3.63428 228.148 3.48047 228.456 3.48047H229.337C229.645 3.48047 229.799 3.63428 229.799 3.94189V4.82373C229.799 5.13135 229.645 5.28516 229.337 5.28516H228.456ZM233.172 18C232.865 18 232.711 17.8462 232.711 17.5386V7.69482C232.711 7.38721 232.865 7.2334 233.172 7.2334H234.034C234.341 7.2334 234.495 7.38721 234.495 7.69482V8.51514H234.536C234.98 8.02295 235.459 7.65723 235.972 7.41797C236.484 7.17871 237.124 7.05908 237.889 7.05908C239.133 7.05908 240.025 7.41113 240.565 8.11523C241.112 8.8125 241.386 9.76953 241.386 10.9863V17.5386C241.386 17.8462 241.232 18 240.924 18H240.042C239.735 18 239.581 17.8462 239.581 17.5386V11.4785C239.581 10.1387 239.359 9.29102 238.915 8.93555C238.47 8.57324 237.906 8.39209 237.223 8.39209C236.334 8.39209 235.661 8.65869 235.203 9.19189C234.745 9.71826 234.516 10.624 234.516 11.9092V17.5386C234.516 17.8462 234.362 18 234.054 18H233.172ZM243.693 12.6167C243.693 11.147 244.048 9.85498 244.759 8.74072C245.47 7.61963 246.509 7.05908 247.876 7.05908C248.663 7.05908 249.292 7.18896 249.763 7.44873C250.235 7.7085 250.659 8.06396 251.035 8.51514H251.055L251.117 7.69482C251.137 7.38721 251.271 7.2334 251.517 7.2334H252.378C252.686 7.2334 252.839 7.38721 252.839 7.69482V18.082C252.839 19.3945 252.535 20.4199 251.927 21.1582C251.325 21.9033 250.132 22.2759 248.348 22.2759C247.152 22.2759 246.256 22.1392 245.662 21.8657C245.067 21.5991 244.643 21.3154 244.39 21.0146C244.206 20.7891 244.195 20.5977 244.359 20.4404L244.923 19.8867C245.081 19.7363 245.299 19.7842 245.58 20.0303C245.942 20.3584 246.291 20.5908 246.625 20.7275C246.96 20.8711 247.538 20.9429 248.358 20.9429C249.288 20.9429 249.965 20.7446 250.389 20.3481C250.819 19.9517 251.035 19.1313 251.035 17.8872V17.272C251.035 17.0601 251.042 16.8516 251.055 16.6465H251.035C250.679 17.1182 250.259 17.4907 249.773 17.7642C249.295 18.0376 248.663 18.1743 247.876 18.1743C246.509 18.1743 245.47 17.6172 244.759 16.5029C244.048 15.3818 243.693 14.0864 243.693 12.6167ZM245.6 12.6167C245.6 13.8745 245.815 14.8931 246.246 15.6724C246.684 16.4517 247.422 16.8413 248.461 16.8413C249.199 16.8413 249.811 16.5918 250.296 16.0928C250.789 15.5869 251.035 14.8213 251.035 13.7959V11.4375C251.035 10.4121 250.789 9.6499 250.296 9.15088C249.811 8.64502 249.199 8.39209 248.461 8.39209C247.422 8.39209 246.684 8.78174 246.246 9.56104C245.815 10.3403 245.6 11.3589 245.6 12.6167ZM262.242 10.6479C262.242 8.25537 262.833 6.38232 264.016 5.02881C265.206 3.66846 266.911 2.98828 269.133 2.98828C270.432 2.98828 271.505 3.21045 272.353 3.65479C273.2 4.09229 273.809 4.69385 274.178 5.45947C274.369 5.85596 274.338 6.12939 274.085 6.27979L273.275 6.75146C273.002 6.90869 272.759 6.77881 272.547 6.36182C272.322 5.93115 271.953 5.52783 271.44 5.15186C270.927 4.77588 270.192 4.58789 269.235 4.58789C267.526 4.58789 266.282 5.12109 265.503 6.1875C264.73 7.24707 264.344 8.73389 264.344 10.6479C264.344 12.562 264.73 14.0522 265.503 15.1187C266.282 16.1782 267.526 16.708 269.235 16.708C270.22 16.708 271.006 16.4824 271.594 16.0312C272.188 15.5801 272.619 15.1084 272.886 14.6162C273.098 14.2197 273.344 14.1001 273.624 14.2573L274.475 14.7393C274.721 14.8828 274.742 15.1562 274.537 15.5596C274.133 16.3457 273.477 17.002 272.568 17.5283C271.659 18.0479 270.514 18.3076 269.133 18.3076C266.911 18.3076 265.206 17.6309 264.016 16.2773C262.833 14.917 262.242 13.0405 262.242 10.6479ZM276.546 12.6167C276.546 11.0103 276.97 9.68408 277.818 8.63818C278.672 7.58545 279.92 7.05908 281.561 7.05908C283.201 7.05908 284.445 7.58545 285.293 8.63818C286.147 9.68408 286.575 11.0103 286.575 12.6167C286.575 14.2231 286.147 15.5527 285.293 16.6055C284.445 17.6514 283.201 18.1743 281.561 18.1743C279.92 18.1743 278.672 17.6514 277.818 16.6055C276.97 15.5527 276.546 14.2231 276.546 12.6167ZM278.454 12.6167C278.454 14.0522 278.737 15.1152 279.305 15.8057C279.872 16.4961 280.624 16.8413 281.561 16.8413C282.497 16.8413 283.249 16.4961 283.816 15.8057C284.384 15.1152 284.667 14.0522 284.667 12.6167C284.667 11.1812 284.384 10.1182 283.816 9.42773C283.249 8.7373 282.497 8.39209 281.561 8.39209C280.624 8.39209 279.872 8.7373 279.305 9.42773C278.737 10.1182 278.454 11.1812 278.454 12.6167ZM288.318 12.6167C288.318 11.0103 288.742 9.68408 289.589 8.63818C290.444 7.58545 291.691 7.05908 293.332 7.05908C294.973 7.05908 296.217 7.58545 297.064 8.63818C297.919 9.68408 298.346 11.0103 298.346 12.6167C298.346 14.2231 297.919 15.5527 297.064 16.6055C296.217 17.6514 294.973 18.1743 293.332 18.1743C291.691 18.1743 290.444 17.6514 289.589 16.6055C288.742 15.5527 288.318 14.2231 288.318 12.6167ZM290.225 12.6167C290.225 14.0522 290.509 15.1152 291.076 15.8057C291.644 16.4961 292.396 16.8413 293.332 16.8413C294.269 16.8413 295.021 16.4961 295.588 15.8057C296.155 15.1152 296.439 14.0522 296.439 12.6167C296.439 11.1812 296.155 10.1182 295.588 9.42773C295.021 8.7373 294.269 8.39209 293.332 8.39209C292.396 8.39209 291.644 8.7373 291.076 9.42773C290.509 10.1182 290.225 11.1812 290.225 12.6167ZM301.135 18C300.828 18 300.674 17.8462 300.674 17.5386V7.69482C300.674 7.38721 300.828 7.2334 301.135 7.2334H301.997C302.304 7.2334 302.458 7.38721 302.458 7.69482V8.92529H302.499C302.827 8.31006 303.213 7.84521 303.658 7.53076C304.102 7.21631 304.656 7.05908 305.319 7.05908C305.756 7.05908 306.064 7.09668 306.242 7.17188C306.399 7.2334 306.457 7.33594 306.416 7.47949L306.18 8.32031C306.146 8.44336 306.057 8.49121 305.914 8.46387C305.674 8.41602 305.449 8.39209 305.237 8.39209C304.437 8.39209 303.777 8.75439 303.258 9.479C302.738 10.1968 302.479 11.1777 302.479 12.4219V17.5386C302.479 17.8462 302.325 18 302.017 18H301.135ZM307.493 12.6167C307.493 11.147 307.848 9.85498 308.559 8.74072C309.27 7.61963 310.309 7.05908 311.676 7.05908C312.462 7.05908 313.091 7.18896 313.563 7.44873C314.035 7.7085 314.458 8.06396 314.834 8.51514H314.855C314.841 8.31006 314.834 8.10156 314.834 7.88965V3.32666C314.834 3.01904 314.988 2.86523 315.296 2.86523H316.178C316.485 2.86523 316.639 3.01904 316.639 3.32666V17.5386C316.639 17.8462 316.485 18 316.178 18H315.316C315.07 18 314.937 17.8462 314.917 17.5386L314.855 16.7183H314.834C314.458 17.1694 314.035 17.5249 313.563 17.7847C313.091 18.0444 312.462 18.1743 311.676 18.1743C310.309 18.1743 309.27 17.6172 308.559 16.5029C307.848 15.3818 307.493 14.0864 307.493 12.6167ZM309.4 12.6167C309.4 13.8745 309.615 14.8931 310.046 15.6724C310.483 16.4517 311.222 16.8413 312.261 16.8413C312.999 16.8413 313.611 16.5918 314.096 16.0928C314.588 15.5869 314.834 14.8213 314.834 13.7959V11.4375C314.834 10.4121 314.588 9.6499 314.096 9.15088C313.611 8.64502 312.999 8.39209 312.261 8.39209C311.222 8.39209 310.483 8.78174 310.046 9.56104C309.615 10.3403 309.4 11.3589 309.4 12.6167ZM320.023 18C319.715 18 319.562 17.8462 319.562 17.5386V7.69482C319.562 7.38721 319.715 7.2334 320.023 7.2334H320.905C321.212 7.2334 321.366 7.38721 321.366 7.69482V17.5386C321.366 17.8462 321.212 18 320.905 18H320.023ZM320.023 5.28516C319.715 5.28516 319.562 5.13135 319.562 4.82373V3.94189C319.562 3.63428 319.715 3.48047 320.023 3.48047H320.905C321.212 3.48047 321.366 3.63428 321.366 3.94189V4.82373C321.366 5.13135 321.212 5.28516 320.905 5.28516H320.023ZM324.74 18C324.432 18 324.278 17.8462 324.278 17.5386V7.69482C324.278 7.38721 324.432 7.2334 324.74 7.2334H325.601C325.909 7.2334 326.062 7.38721 326.062 7.69482V8.51514H326.104C326.548 8.02295 327.026 7.65723 327.539 7.41797C328.052 7.17871 328.691 7.05908 329.457 7.05908C330.701 7.05908 331.593 7.41113 332.133 8.11523C332.68 8.8125 332.953 9.76953 332.953 10.9863V17.5386C332.953 17.8462 332.799 18 332.492 18H331.61C331.302 18 331.148 17.8462 331.148 17.5386V11.4785C331.148 10.1387 330.926 9.29102 330.482 8.93555C330.038 8.57324 329.474 8.39209 328.79 8.39209C327.901 8.39209 327.228 8.65869 326.77 9.19189C326.312 9.71826 326.083 10.624 326.083 11.9092V17.5386C326.083 17.8462 325.929 18 325.622 18H324.74ZM335.26 15.1289C335.26 13.9121 335.828 13.02 336.962 12.4526C338.104 11.8853 339.806 11.5537 342.069 11.458V10.7607C342.069 10.1182 341.922 9.56445 341.628 9.09961C341.341 8.62793 340.767 8.39209 339.905 8.39209C339.358 8.39209 338.921 8.44678 338.593 8.55615C338.265 8.65869 337.964 8.79883 337.69 8.97656C337.424 9.14746 337.167 9.36963 336.921 9.64307C336.737 9.84814 336.562 9.8584 336.398 9.67383L335.865 9.05859C335.715 8.8877 335.766 8.68262 336.019 8.44336C336.381 8.10156 336.733 7.84521 337.075 7.67432C337.417 7.50342 337.841 7.35986 338.347 7.24365C338.859 7.12061 339.379 7.05908 339.905 7.05908C341.334 7.05908 342.353 7.42822 342.961 8.1665C343.569 8.89795 343.874 9.90283 343.874 11.1812V17.5386C343.874 17.8462 343.72 18 343.412 18H342.489C342.223 18 342.089 17.8462 342.089 17.5386V17.0361H342.069C341.529 17.46 340.999 17.7573 340.479 17.9282C339.967 18.0923 339.393 18.1743 338.757 18.1743C337.636 18.1743 336.771 17.9077 336.163 17.3745C335.561 16.8345 335.26 16.0859 335.26 15.1289ZM337.126 15.1699C337.126 15.5938 337.215 15.9355 337.393 16.1953C337.571 16.4482 337.817 16.6123 338.131 16.6875C338.446 16.7559 338.774 16.79 339.116 16.79C339.642 16.79 340.141 16.7388 340.613 16.6362C341.084 16.5337 341.57 16.2637 342.069 15.8262V12.8013C340.688 12.9038 339.704 13.0303 339.116 13.1807C338.528 13.3242 338.049 13.5771 337.68 13.9395C337.311 14.2949 337.126 14.7051 337.126 15.1699ZM346.273 8.58691C345.965 8.58691 345.812 8.46729 345.812 8.22803V7.59229C345.812 7.35303 345.965 7.2334 346.273 7.2334H347.483V6.31055C347.483 6.17383 347.517 6.04395 347.585 5.9209L348.303 4.61865C348.433 4.37939 348.539 4.25977 348.621 4.25977H348.98C349.185 4.25977 349.288 4.37939 349.288 4.61865V7.2334H351.472C351.779 7.2334 351.933 7.35303 351.933 7.59229V8.22803C351.933 8.46729 351.779 8.58691 351.472 8.58691H349.288V15.1187C349.288 15.8364 349.394 16.3047 349.605 16.5234C349.824 16.7354 350.084 16.8413 350.385 16.8413C350.617 16.8413 350.894 16.7729 351.215 16.6362C351.543 16.4995 351.769 16.3833 351.892 16.2876C352.015 16.1919 352.111 16.2227 352.179 16.3799L352.518 17.1694C352.572 17.3062 352.531 17.4155 352.395 17.4976C352.128 17.6548 351.738 17.8086 351.226 17.959C350.713 18.1025 350.2 18.1743 349.688 18.1743C348.977 18.1743 348.43 17.918 348.047 17.4053C347.671 16.8926 347.483 16.168 347.483 15.2314V8.58691H346.273ZM353.984 12.6167C353.984 11.0103 354.408 9.68408 355.255 8.63818C356.11 7.58545 357.357 7.05908 358.998 7.05908C360.639 7.05908 361.883 7.58545 362.73 8.63818C363.585 9.68408 364.012 11.0103 364.012 12.6167C364.012 14.2231 363.585 15.5527 362.73 16.6055C361.883 17.6514 360.639 18.1743 358.998 18.1743C357.357 18.1743 356.11 17.6514 355.255 16.6055C354.408 15.5527 353.984 14.2231 353.984 12.6167ZM355.891 12.6167C355.891 14.0522 356.175 15.1152 356.742 15.8057C357.31 16.4961 358.062 16.8413 358.998 16.8413C359.935 16.8413 360.687 16.4961 361.254 15.8057C361.821 15.1152 362.105 14.0522 362.105 12.6167C362.105 11.1812 361.821 10.1182 361.254 9.42773C360.687 8.7373 359.935 8.39209 358.998 8.39209C358.062 8.39209 357.31 8.7373 356.742 9.42773C356.175 10.1182 355.891 11.1812 355.891 12.6167ZM366.801 18C366.494 18 366.34 17.8462 366.34 17.5386V7.69482C366.34 7.38721 366.494 7.2334 366.801 7.2334H367.663C367.97 7.2334 368.124 7.38721 368.124 7.69482V8.92529H368.165C368.493 8.31006 368.879 7.84521 369.324 7.53076C369.768 7.21631 370.322 7.05908 370.985 7.05908C371.422 7.05908 371.73 7.09668 371.908 7.17188C372.065 7.2334 372.123 7.33594 372.082 7.47949L371.846 8.32031C371.812 8.44336 371.723 8.49121 371.58 8.46387C371.34 8.41602 371.115 8.39209 370.903 8.39209C370.103 8.39209 369.443 8.75439 368.924 9.479C368.404 10.1968 368.145 11.1777 368.145 12.4219V17.5386C368.145 17.8462 367.991 18 367.683 18H366.801Z" fill="#464C4A"/>
</svg>
