<svg width="89" height="89" viewBox="0 0 89 89" fill="none" xmlns="http://www.w3.org/2000/svg">
<path d="M13.4 0.400024C6.2203 0.400024 0.399994 6.22033 0.399994 13.4V60.2C0.399994 67.3797 6.2203 73.2 13.4 73.2H39.2682C39.8402 71.3202 40.7399 69.56 41.9221 68H13.4C9.09216 68 5.59999 64.5077 5.59999 60.2V21.1934H68V41.7019L68.5304 41.1714C69.9152 39.7869 71.5038 38.7313 73.2 38.0045V13.4C73.2 6.22033 67.3796 0.400024 60.2 0.400024H13.4ZM5.5949 13.3937C5.5949 9.08584 9.08712 5.59368 13.3949 5.59368H60.1948C64.503 5.59368 67.9948 9.08584 67.9948 13.3937V15.9937H5.5949V13.3937ZM33.4318 27.1551C34.4472 28.1704 34.4472 29.8166 33.4318 30.832L22.2703 41.9935L33.4318 53.1551C34.4472 54.1706 34.4472 55.8164 33.4318 56.832C32.4164 57.8475 30.7702 57.8475 29.7549 56.832L16.7549 43.832C15.7395 42.8164 15.7395 41.1704 16.7548 40.1551L29.7548 27.1551C30.7702 26.1397 32.4164 26.1397 33.4318 27.1551ZM42.7613 53.1551C41.7461 54.1706 41.7462 55.8169 42.7613 56.832C43.7768 57.8475 45.4232 57.8475 46.4387 56.832L59.4387 43.832C60.4538 42.8169 60.4538 41.1705 59.4387 40.1552L46.4387 27.1552C45.4232 26.1398 43.7768 26.1398 42.7613 27.1552C41.7462 28.1706 41.7462 29.8168 42.7613 30.8321L53.9231 41.9937L42.7613 53.1551ZM72.2078 44.8486L47.095 69.9615C45.6306 71.4258 44.5917 73.2603 44.0894 75.2691L42.1425 83.0582C41.2954 86.4455 44.3639 89.5135 47.7512 88.6669L55.5403 86.7195C57.549 86.2172 59.3836 85.1787 60.8479 83.7144L85.9608 58.6015C89.7584 54.8035 89.7584 48.6461 85.9608 44.8486C82.1632 41.0506 76.0054 41.0506 72.2078 44.8486Z" fill="#E0E0E0"/>
</svg>
